<svg id="Layer_1" enable-background="new 0 0 512 512" height="512" viewBox="0 0 512 512" width="512" xmlns="http://www.w3.org/2000/svg"><g><path d="m149.312 75.404 11.413 27.542c1.334 3.265.227 7.041-2.697 9.029-9.028 6.161-17.462 13.174-25.186 20.869-7.722 7.723-14.735 16.156-20.867 25.186-2.102 3.095-6.135 4.116-9.4 2.555l-27.171-11.272c-5.338-2.214-11.642.369-13.856 5.707-4.77 11.557-9.482 23.198-14.366 34.696-1.021 2.64-.908 5.48.113 7.95 1.221 2.953 3.125 4.543 5.935 5.821l27.285 11.3c3.352 1.363 5.168 4.884 4.516 8.29-2.018 10.705-3.039 21.607-3.039 32.567 0 10.959 1.021 21.862 3.039 32.566.682 3.663-1.42 7.183-4.799 8.404l-27.258 11.3c-2.667 1.107-4.655 3.208-5.679 5.707-1.051 2.526-1.135 5.451-.027 8.148 4.26 11.897 9.88 23.027 14.366 34.669 1.107 2.583 3.18 4.514 5.622 5.508 2.924 1.222 5.508 1.023 8.377-.057l27.312-11.329c3.268-1.334 7.043-.227 9.031 2.698 3.009 4.457 6.302 8.802 9.851 13.089 3.408 4.117 7.071 8.149 11.017 12.096 3.947 3.946 7.979 7.61 12.097 11.017 4.287 3.549 8.63 6.843 13.089 9.853 3.094 2.101 4.088 6.133 2.525 9.398l-11.241 27.172c-1.107 2.697-1.023 5.622.027 8.148 1.021 2.499 3.009 4.6 5.679 5.708l34.497 14.281c2.697 1.107 5.621 1.022 8.121-.028 2.527-1.022 4.628-3.009 5.735-5.678l11.386-27.541c1.361-3.265 4.854-5.168 8.318-4.515 10.677 2.016 21.607 3.038 32.565 3.038 10.962 0 21.863-1.022 32.567-3.038 3.664-.682 7.184 1.419 8.404 4.798l11.302 27.257c1.107 2.669 3.209 4.656 5.706 5.678 2.527 1.05 5.451 1.136 8.148.028l34.497-14.281c.881-.37 1.676-.852 2.414-1.42l-27.371-27.371c-2.953-2.925-2.953-7.695 0-10.62 2.926-2.953 7.694-2.953 10.62 0l51.703 51.704 15.503-15.502-233.702-233.703c-3.834 7.212-6.645 14.793-8.404 22.601l150.879 150.88c2.926 2.924 2.926 7.666 0 10.619-2.924 2.925-7.694 2.925-10.618 0l-36.485-36.485c-15.616 2.244-31.602 1.022-46.764-3.691-15.843-4.94-30.75-13.685-43.298-26.206-20.672-20.699-31.005-47.785-31.005-74.9 0-28.308 11.157-55.054 31.005-74.873 20.016-20.017 46.848-31.033 74.898-31.033 27.088 0 54.205 10.336 74.873 31.005 12.55 12.55 21.295 27.456 26.207 43.328 4.712 15.133 5.962 31.119 3.719 46.735l87.877 87.876c.568-.711 1.051-1.533 1.391-2.413l14.31-34.498c1.107-2.697 1.023-5.622-.027-8.148-1.021-2.499-3.01-4.601-5.679-5.707l-27.541-11.386c-3.352-1.391-5.168-4.912-4.516-8.319 2.018-10.675 3.039-21.607 3.039-32.566 0-10.96-1.022-21.863-3.039-32.567-.682-3.663 1.393-7.183 4.771-8.404l27.285-11.3c2.669-1.107 4.657-3.208 5.679-5.708 1.051-2.526 1.135-5.451.027-8.148l-14.31-34.497c-1.107-2.669-3.208-4.656-5.706-5.679-2.527-1.05-5.424-1.135-8.121-.028l-27.54 11.414c-3.322 1.363-7.07.171-9.029-2.696-3.038-4.43-6.304-8.802-9.854-13.09-3.406-4.117-7.067-8.149-11.015-12.096-3.947-3.947-7.978-7.609-12.095-11.016-4.289-3.55-8.659-6.814-13.091-9.853-3.094-2.101-4.117-6.133-2.555-9.398 3.777-9.114 7.496-18.285 11.356-27.371 1.022-2.641.908-5.48-.113-7.922-1.22-2.953-3.149-4.543-5.962-5.82l-33.675-13.97c-.34-.113-.68-.227-.992-.397-2.584-.937-5.311-.795-7.695.199-2.356.965-4.372 2.81-5.507 5.252-.115.341-.285.682-.455 1.022l-11.159 26.945c-1.361 3.351-4.883 5.168-8.291 4.515-10.704-2.016-21.605-3.038-32.567-3.038-10.958 0-21.861 1.022-32.565 3.038-3.662.682-7.184-1.392-8.434-4.77l-11.271-27.285c-1.107-2.67-3.208-4.657-5.735-5.679-2.5-1.051-5.424-1.136-8.121-.028l-34.497 14.31c-5.337 2.212-7.921 8.487-5.706 13.824zm335.545 387.991-21.465 21.493 30.128 8.66zm-92.219 16.78c-1.76-.483-2.953-.823-4.316-2.215l-19.022-19.023c-2.102 1.902-4.572 3.492-7.355 4.628l-34.497 14.31c-6.474 2.698-13.487 2.471-19.506-.028-6.076-2.499-11.187-7.325-13.884-13.828l-9.085-22.004c-9.768 1.533-19.563 2.3-29.332 2.3-9.767 0-19.561-.767-29.33-2.3l-9.112 22.004c-2.697 6.502-7.808 11.329-13.856 13.828s-13.032 2.726-19.506.028l-34.524-14.31c-6.504-2.697-11.329-7.808-13.829-13.855-2.498-6.02-2.697-13.033-.027-19.506l9.112-22.033c-3.121-2.271-6.216-4.657-9.198-7.155-4.572-3.777-8.972-7.751-13.146-11.954-4.203-4.173-8.177-8.575-11.954-13.147-2.498-2.981-4.883-6.075-7.154-9.199l-21.75 9.001c-6.075 2.782-13.657 2.612-19.789.085-5.963-2.471-10.987-7.155-13.743-13.516-5.109-10.96-9.737-23.509-14.423-34.838-2.697-6.474-2.469-13.457.029-19.506 2.498-6.047 7.325-11.159 13.827-13.855l22.004-9.114c-1.533-9.767-2.301-19.563-2.301-29.33 0-9.768.768-19.563 2.301-29.33l-21.777-9.001c-6.303-2.442-11.47-7.751-14.054-13.969-2.471-5.934-2.699-12.833-.143-19.222l14.422-34.781c1.137-2.782 2.727-5.253 4.629-7.354l-42.619-42.618c-12.946-12.947-12.946-34.299 0-47.217l9.198-9.2c2.927-2.924 7.696-2.924 10.621 0 2.924 2.925 2.924 7.694 0 10.619l-9.201 9.199c-7.097 7.098-7.097 18.881 0 25.979l22.858 22.828 20.814-20.811 26.745-26.746 20.812-20.812-22.856-22.857c-7.127-7.155-18.798-7.155-25.953 0l-9.199 9.199c-2.923 2.925-7.692 2.925-10.618 0-2.923-2.924-2.923-7.694 0-10.619l9.199-9.199c12.977-12.976 34.243-12.976 47.19 0l42.646 42.617c1.959-1.788 5.395-3.832 7.893-4.855l33.958-14.083c6.474-2.668 13.458-2.47 19.506.028 6.049 2.499 11.159 7.326 13.856 13.856l9.112 21.976c9.77-1.533 19.563-2.299 29.33-2.299 9.769 0 19.565.766 29.332 2.299l9.085-21.976c2.697-6.531 7.808-11.329 13.884-13.856 6.019-2.498 13.005-2.697 19.506-.028l34.271 14.197c6.332 2.441 11.499 7.751 14.081 13.97 2.473 5.963 2.699 12.833.115 19.25-2.811 7.382-6.161 14.935-9.228 22.289 3.152 2.271 6.218 4.656 9.228 7.155 4.572 3.775 8.943 7.751 13.146 11.953s8.178 8.574 11.954 13.146c2.498 3.009 4.883 6.076 7.154 9.228l22.006-9.143c6.501-2.669 13.485-2.47 19.533.029 6.049 2.498 11.159 7.325 13.857 13.855l14.309 34.497c2.668 6.474 2.471 13.487-.027 19.506-2.5 6.076-7.325 11.187-13.856 13.884l-21.977 9.086c1.533 9.767 2.301 19.563 2.301 29.33s-.768 19.562-2.301 29.33l21.977 9.114c6.531 2.697 11.356 7.808 13.856 13.855 2.498 6.048 2.695 13.032.027 19.506l-14.309 34.526c-1.137 2.783-2.727 5.225-4.628 7.326l19.023 19.052c1.391 1.391 1.732 2.584 2.242 4.372l31.488 109.71c1.137 3.975-1.164 8.149-5.138 9.284-1.449.397-2.896.369-4.23-.057-36.571-10.475-73.115-20.98-109.684-31.485zm54.229-.028 33.277-33.249-11.186-38.927c-20.331 20.329-40.659 40.659-60.987 60.988zm-312.718-414.367-11.952-11.954-15.503 15.502 35.546 35.52c.767-.596 1.563-1.164 2.328-1.732l-8.857-21.408c-2.301-4.458-2.64-11.131-1.562-15.928zm-3.606 48.636-34.47-34.469-16.125 16.156 34.439 34.441c2.526-2.839 5.14-5.622 7.837-8.319 2.697-2.698 5.452-5.31 8.319-7.809zm-25.697 27.825-35.519-35.52-15.503 15.503 11.925 11.925c4.969-1.107 10.309-.767 15.333 1.306l22.033 9.143c.567-.795 1.135-1.59 1.731-2.357zm241.683 114.651c.141-9.54-1.25-19.137-4.117-28.365-4.232-13.571-11.728-26.376-22.516-37.137-17.405-17.405-40.888-26.945-65.503-26.633l33.901 33.901c2.924 2.954 2.924 7.695 0 10.62-2.925 2.953-7.694 2.953-10.62 0l-42.275-42.249c-7.781 1.761-15.39 4.572-22.572 8.433l233.702 233.703 15.502-15.502-160.335-160.337c-2.925-2.953-2.925-7.695 0-10.648 2.924-2.924 7.695-2.924 10.618 0zm-146.594-73.083c-2.953 2.328-5.82 4.827-8.574 7.581-2.727 2.726-5.253 5.594-7.552 8.574l235.944 235.946 16.154-16.128zm-35.18 70.584v1.25c0 23.253 8.859 46.536 26.605 64.282 10.788 10.76 23.594 18.256 37.167 22.487 9.226 2.896 18.796 4.259 28.363 4.117z"/></g></svg>