<?xml version="1.0" encoding="utf-8"?>
<!-- Generator: Adobe Illustrator 24.1.1, SVG Export Plug-In . SVG Version: 6.00 Build 0)  -->
<svg version="1.1" id="Livello_1" xmlns="http://www.w3.org/2000/svg" xmlns:xlink="http://www.w3.org/1999/xlink" x="0px" y="0px"
	 viewBox="0 0 30 30" style="enable-background:new 0 0 30 30;" xml:space="preserve">
<style type="text/css">
	.st0{fill:#FF5C33;}
	.st1{fill-rule:evenodd;clip-rule:evenodd;fill:#FF5C33;}
</style>
<g>
	<path class="st0" d="M14.61,4.52c5.88,0,10.67,4.79,10.67,10.67c0,5.88-4.79,10.67-10.67,10.67c-5.88,0-10.67-4.79-10.67-10.67
		C3.94,9.31,8.72,4.52,14.61,4.52 M14.61,2.83c-6.83,0-12.36,5.53-12.36,12.36s5.53,12.36,12.36,12.36
		c6.83,0,12.36-5.53,12.36-12.36S21.43,2.83,14.61,2.83L14.61,2.83z"/>
	<path class="st1" d="M16.2,10.6c0.45-0.02,0.9,0,1.35,0c0.05,0,0.11,0,0.19,0V8.26c-0.24-0.02-0.49-0.06-0.74-0.07
		c-0.46-0.02-0.92-0.04-1.38-0.03c-0.7,0.01-1.37,0.19-1.95,0.6c-0.67,0.48-1.03,1.16-1.17,1.95c-0.06,0.33-0.07,0.67-0.08,1
		c-0.01,0.52,0,1.05,0,1.57v0.2h-2.24v2.61h2.22v6.57h2.72v-6.56h2.22c0.11-0.87,0.22-1.73,0.34-2.62c-0.18,0-0.34,0-0.5,0
		c-0.63,0-2.08,0-2.08,0s0.01-1.29,0.02-1.86C15.12,10.86,15.58,10.63,16.2,10.6z"/>
</g>
</svg>
