<?xml version="1.0" encoding="utf-8"?>
<!-- Generator: Adobe Illustrator 24.1.1, SVG Export Plug-In . SVG Version: 6.00 Build 0)  -->
<svg version="1.1" id="Layer_1" xmlns="http://www.w3.org/2000/svg" xmlns:xlink="http://www.w3.org/1999/xlink" x="0px" y="0px"
	 viewBox="0 0 299.21 299.21" style="enable-background:new 0 0 299.21 299.21;" xml:space="preserve">
<g id="XMLID_106_">
	<path id="XMLID_107_" d="M28.94,14.61c-2.61,0-4.55,2.02-4.32,4.49l21.98,234.66c0.23,2.47,2.48,5.04,4.99,5.7l93.28,24.65
		c2.51,0.66,6.62,0.66,9.14,0l93.56-24.69c2.51-0.66,4.76-3.23,4.99-5.7L274.59,19.1c0.23-2.47-1.71-4.49-4.32-4.49H28.94z
		 M227.77,68.42c-0.21,2.2-0.57,6.03-0.8,8.5l-0.58,6.16c-0.23,2.47-0.57,6-0.74,7.85c-0.17,1.85-0.34,3.36-0.37,3.36
		c-0.03,0-2.19,0-4.79,0h-66.14c-2.61,0-4.76,0-4.79,0c-0.03,0-2.19,0-4.79,0h-34.84c-2.61,0-4.55,2.02-4.32,4.49l2.03,21.62
		c0.23,2.47,2.56,4.49,5.16,4.49h31.96c2.61,0,4.76,0,4.79,0s2.18,0,4.79,0h54.94c2.61,0,6.64,0,8.97,0c2.32,0,4.05,1.8,3.84,4.01
		c-0.21,2.2-0.57,6.03-0.8,8.5l-6.53,69.69c-0.23,2.47-0.53,5.63-0.66,7.02c-0.13,1.39-2.29,3.06-4.8,3.73l-55.12,14.55
		c-2.51,0.66-4.6,1.21-4.64,1.22c-0.04,0.01-2.13-0.53-4.64-1.19l-55.18-14.57c-2.51-0.66-4.76-3.23-4.99-5.7l-3.55-37.94
		c-0.23-2.47,1.71-4.49,4.32-4.49h5.04c2.61,0,6.87,0,9.48,0h7.51c2.61,0,4.93,2.02,5.16,4.49l1.39,14.85
		c0.23,2.47,2.48,5.02,5,5.67l25.81,6.63c2.52,0.65,4.59,1.18,4.6,1.18c0.01,0,2.08-0.53,4.6-1.18l25.86-6.65
		c2.52-0.65,4.77-3.2,5-5.67l2.8-29.76c0.23-2.47-1.71-4.49-4.32-4.49h-29.08c-2.61,0-4.76,0-4.79,0s-2.19,0-4.79,0H84.09
		c-2.61,0-4.93-2.02-5.16-4.49l-6.88-73.37c-0.23-2.47-0.59-6.3-0.8-8.5c-0.21-2.2,1.76-4.01,4.37-4.01h69.15c2.61,0,4.76,0,4.79,0
		s2.18,0,4.79,0h69.06C226.02,64.42,227.98,66.22,227.77,68.42z"/>
</g>
</svg>
