<?xml version="1.0" encoding="utf-8"?>
<!-- Generator: Adobe Illustrator 24.1.1, SVG Export Plug-In . SVG Version: 6.00 Build 0)  -->
<svg version="1.1" id="Livello_1" xmlns="http://www.w3.org/2000/svg" xmlns:xlink="http://www.w3.org/1999/xlink" x="0px" y="0px"
	 viewBox="0 0 30 30" style="enable-background:new 0 0 30 30;" xml:space="preserve">
<style type="text/css">
	.st0{fill:#FF5C33;}
</style>
<g>
	<path class="st0" d="M14.61,4.52c5.88,0,10.67,4.79,10.67,10.67c0,5.88-4.79,10.67-10.67,10.67c-5.88,0-10.67-4.79-10.67-10.67
		C3.94,9.31,8.72,4.52,14.61,4.52 M14.61,2.83c-6.83,0-12.36,5.53-12.36,12.36s5.53,12.36,12.36,12.36s12.36-5.53,12.36-12.36
		S21.43,2.83,14.61,2.83L14.61,2.83z"/>
	<path class="st0" d="M21.18,11.96c-0.09-0.86-0.42-1.62-1.06-2.23c-0.67-0.64-1.5-0.93-2.4-0.98c-1.54-0.08-5.19-0.14-6.48,0.07
		c-1.47,0.24-2.43,1.09-2.83,2.54c-0.31,1.11-0.25,6.25-0.07,7.35c0.25,1.51,1.14,2.47,2.63,2.86c1.03,0.27,6.11,0.23,7.25,0.05
		c1.51-0.24,2.48-1.13,2.87-2.62C21.39,17.85,21.28,12.99,21.18,11.96z M19.97,18.5c-0.18,1.14-0.93,1.85-2.08,1.98
		c-1.06,0.12-5.77,0.18-6.75-0.09c-0.94-0.26-1.47-0.91-1.63-1.85c-0.15-0.9-0.19-5.4,0-6.61c0.17-1.13,0.93-1.84,2.07-1.97
		c1.16-0.13,5.33-0.14,6.45,0.03c1.14,0.18,1.85,0.94,1.97,2.09C20.12,13.14,20.15,17.34,19.97,18.5z M14.74,11.86
		c-1.85,0-3.36,1.5-3.36,3.36c0,1.85,1.5,3.36,3.36,3.36c1.85,0,3.36-1.5,3.36-3.36C18.09,13.37,16.59,11.86,14.74,11.86z
		 M14.71,17.39c-1.2-0.01-2.16-0.99-2.15-2.19c0.01-1.2,0.99-2.16,2.19-2.15c1.2,0.01,2.16,0.99,2.15,2.19
		C16.89,16.43,15.91,17.4,14.71,17.39z M19.01,11.73c0,0.43-0.35,0.79-0.79,0.78c-0.43,0-0.79-0.35-0.78-0.79
		c0-0.43,0.35-0.79,0.79-0.78C18.66,10.95,19.01,11.3,19.01,11.73z"/>
	<path class="st0" d="M21.18,11.96c-0.09-0.86-0.42-1.62-1.06-2.23c-0.67-0.64-1.5-0.93-2.4-0.98c-1.54-0.08-5.19-0.14-6.48,0.07
		c-1.47,0.24-2.43,1.09-2.83,2.54c-0.31,1.11-0.25,6.25-0.07,7.35c0.25,1.51,1.14,2.47,2.63,2.86c1.03,0.27,6.11,0.23,7.25,0.05
		c1.51-0.24,2.48-1.13,2.87-2.62C21.39,17.85,21.28,12.99,21.18,11.96z M19.97,18.5c-0.18,1.14-0.93,1.85-2.08,1.98
		c-1.06,0.12-5.77,0.18-6.75-0.09c-0.94-0.26-1.47-0.91-1.63-1.85c-0.15-0.9-0.19-5.4,0-6.61c0.17-1.13,0.93-1.84,2.07-1.97
		c1.16-0.13,5.33-0.14,6.45,0.03c1.14,0.18,1.85,0.94,1.97,2.09C20.12,13.14,20.15,17.34,19.97,18.5z M14.74,11.86
		c-1.85,0-3.36,1.5-3.36,3.36c0,1.85,1.5,3.36,3.36,3.36c1.85,0,3.36-1.5,3.36-3.36C18.09,13.37,16.59,11.86,14.74,11.86z
		 M14.71,17.39c-1.2-0.01-2.16-0.99-2.15-2.19c0.01-1.2,0.99-2.16,2.19-2.15c1.2,0.01,2.16,0.99,2.15,2.19
		C16.89,16.43,15.91,17.4,14.71,17.39z M19.01,11.73c0,0.43-0.35,0.79-0.79,0.78c-0.43,0-0.79-0.35-0.78-0.79
		c0-0.43,0.35-0.79,0.79-0.78C18.66,10.95,19.01,11.3,19.01,11.73z"/>
</g>
</svg>
