<?xml version="1.0" encoding="utf-8"?>
<!-- Generator: Adobe Illustrator 24.1.1, SVG Export Plug-In . SVG Version: 6.00 Build 0)  -->
<svg version="1.1" id="Layer_1" xmlns="http://www.w3.org/2000/svg" xmlns:xlink="http://www.w3.org/1999/xlink" x="0px" y="0px"
	 viewBox="0 0 512 512" style="enable-background:new 0 0 512 512;" xml:space="preserve">
<g>
	<g>
		<path d="M478.96,24.92c-2.05-1.96-4.09-3.92-8.18-3.92H41.23c-2.05,0-6.14,1.96-8.18,3.92C31,26.88,31,28.83,31,32.75
			l40.91,391.67c0,3.92,4.09,7.83,6.14,7.83L262.14,491h4.09h4.09l163.64-58.75c4.09-1.96,6.14-3.92,6.14-7.83L481,32.75
			C481,30.79,481,26.87,478.96,24.92L478.96,24.92z M256,375.46c0,1.96-2.05,5.88-4.09,7.83c-2.05,1.96-4.21,2.22-6.26,2.22
			l-1.92-0.26l-71.59-19.58c-4.09-1.96-6.14-3.92-8.18-7.83l-10.23-48.96c-2.05-5.87,2.05-9.79,8.18-11.75
			c6.14-1.96,10.23,1.96,12.27,7.83l8.18,43.08l53.18,13.71V140.46h-112.5c-6.14,0-10.23-3.92-10.23-9.79
			c0-5.87,4.09-9.79,10.23-9.79h122.73c6.14,0,10.23,3.92,10.23,9.79L256,375.46z M399.18,132.63l-10.23,39.17
			c-2.05,5.87-6.22,8.77-12.27,7.83c-6.38-0.99-8.83-5.91-8.18-11.75c0.77-6.97,6.14-27.42,6.14-27.42h-79.77v97.92h71.59
			c2.05,0,6.14,1.96,8.18,3.92c2.05,1.96,2.05,5.87,2.05,7.83l-20.45,107.71c0,3.92-4.09,5.87-6.14,7.83l-61.36,19.58
			c-2.05,0-9.48,2.71-14.32-5.87c-2.05-5.87,2.05-9.79,6.14-11.75L335.77,350l16.36-90.08h-69.55c-6.14,0-10.23-3.92-10.23-9.79
			v-117.5c0-5.87,4.09-9.79,10.23-9.79h102.27c4.09,0,6.89,0.84,9.56,1.9C400.1,126.98,399.18,130.67,399.18,132.63L399.18,132.63z"
			/>
	</g>
</g>
</svg>
