<?xml version="1.0" encoding="utf-8"?>
<!-- Generator: Adobe Illustrator 24.1.1, SVG Export Plug-In . SVG Version: 6.00 Build 0)  -->
<svg version="1.1" id="Livello_1" xmlns="http://www.w3.org/2000/svg" xmlns:xlink="http://www.w3.org/1999/xlink" x="0px" y="0px"
	 viewBox="0 0 2270 2500" style="enable-background:new 0 0 2270 2500;" xml:space="preserve">
<g>
	<path d="M1049.03,222.17c51.92-29.8,119.54-29.94,171.41,0c260.96,147.89,522,295.56,782.91,443.54
		c49.07,27.73,81.9,82.5,81.4,139.22v889.79c0.37,59.06-35.7,115.15-87.48,142.25c-260.1,147.08-520.07,294.34-780.12,441.42
		c-52.99,30.39-121.97,28.05-173.3-4.83c-77.98-45.34-156.09-90.45-234.08-135.75c-15.94-9.53-33.9-17.11-45.15-32.61
		c9.95-13.45,27.73-15.12,42.18-20.99c32.55-10.38,62.45-27.04,92.35-43.21c7.56-5.19,16.79-3.2,24.04,1.44
		c66.68,38.35,132.77,77.81,199.68,115.79c14.27,8.26,28.72-2.71,40.92-9.53c255.24-144.69,510.79-288.83,765.98-433.56
		c9.46-4.56,14.68-14.63,13.91-25.02c0.18-293.52,0.04-587.1,0.09-880.62c1.08-11.79-5.72-22.62-16.35-27.45
		c-259.2-146.41-518.26-293.04-777.42-439.48c-9.19-6.34-21.32-6.36-30.53-0.04C860.33,489,601.31,635.77,342.16,782.17
		c-10.59,4.83-17.7,15.49-16.44,27.32c0.04,293.52,0,587.1,0,880.66c-0.92,10.38,4.7,20.24,14.09,24.7
		c69.16,39.33,138.4,78.39,207.6,117.59c38.99,21.05,86.85,33.55,129.8,17.43c37.9-13.63,64.47-52.43,63.75-92.79
		c0.36-291.81-0.18-583.66,0.27-875.43c-0.95-12.95,11.3-23.66,23.86-22.44c33.23-0.22,66.5-0.45,99.73,0.09
		c13.87-0.31,23.42,13.63,21.7,26.69c-0.13,293.66,0.36,587.32-0.22,880.98c0.09,78.26-31.97,163.42-104.14,201.71
		c-88.92,46.2-198.82,36.4-286.66-7.9c-76.05-38.07-148.62-83-223.32-123.78c-51.91-26.95-87.8-83.26-87.43-142.28v-889.8
		c-0.54-57.89,33.59-113.66,84.19-140.98C529,516.74,789.01,369.43,1049.03,222.17z"/>
	<path d="M1275.9,838.53c113.42-7.32,234.84-4.34,336.91,51.7c79.02,42.95,122.83,133.08,124.23,221.13
		c-2.21,11.88-14.59,18.43-25.89,17.61c-32.91-0.04-65.82,0.45-98.73-0.22c-13.96,0.54-22.07-12.37-23.83-24.75
		c-9.46-42.13-32.36-83.86-71.9-104.18c-60.69-30.48-131.06-28.94-197.25-28.31c-48.31,2.57-100.27,6.77-141.2,35.26
		c-31.42,21.59-40.97,65.16-29.75,100.25c10.57,25.2,39.57,33.33,63.3,40.82c136.69,35.86,281.53,32.29,415.61,79.47
		c55.51,19.24,109.81,56.63,128.81,114.93c24.85,78.13,13.96,171.51-41.46,234.23c-44.94,51.61-110.4,79.71-175.69,94.96
		c-86.85,19.42-176.98,19.92-265.19,11.29c-82.94-9.48-169.24-31.34-233.27-88.02c-54.75-47.68-81.49-121.97-78.84-193.67
		c0.63-12.11,12.65-20.55,24.22-19.56c33.14-0.27,66.28-0.36,99.42,0.04c13.24-0.95,23.05,10.52,23.73,23.04
		c6.11,40.14,21.16,82.27,56.05,106.07c67.35,43.58,151.86,40.6,228.98,41.82c63.89-2.84,135.61-3.7,187.75-46.06
		c27.51-24.16,35.66-64.58,28.22-99.35c-8.05-29.36-38.67-43.04-64.97-51.98c-134.93-42.81-281.4-27.28-415.03-75.69
		c-54.25-19.23-106.71-55.59-127.55-111.49c-29.08-79.12-15.76-176.97,45.47-237.58C1107.78,870.05,1193.96,846.83,1275.9,838.53
		L1275.9,838.53z"/>
</g>
</svg>
