<?xml version="1.0" encoding="utf-8"?>
<!-- Generator: Adobe Illustrator 24.1.1, SVG Export Plug-In . SVG Version: 6.00 Build 0)  -->
<svg version="1.1" id="Capa_1" xmlns="http://www.w3.org/2000/svg" xmlns:xlink="http://www.w3.org/1999/xlink" x="0px" y="0px"
	 viewBox="0 0 512 512" style="enable-background:new 0 0 512 512;" xml:space="preserve">
<style type="text/css">
	.st0{fill:#FFFFFF;}
	.st1{fill:url(#SVGID_1_);}
</style>
<path d="M256,136c-106.54,0-190,52.71-190,120s83.46,120,190,120s190-52.71,190-120S362.54,136,256,136z"/>
<path class="st0" d="M256,356c-45.52,0-87.53-10.71-118.94-27.82l6.38-32.18h27.77c20.94,0,39.1-17.92,44.19-43.58l1.38-7.04
	c2.37-11.95,0.29-24.38-5.71-34.09c-6.01-9.72-15.04-15.28-24.79-15.28h-33.19c-3.63,0-6.8,3.12-7.68,7.58l-22.92,115.8
	C97.23,301.99,81.83,279.81,81.83,256c0-54.21,79.76-100,174.17-100s174.17,45.79,174.17,100S350.4,356,256,356z"/>
<path id="SVGCleanerId_0" class="st0" d="M147.39,276l11.88-60h27c4.84,0,9.33,2.76,12.31,7.59c2.98,4.82,4.02,11,2.84,16.94
	l-1.38,7.04C196.72,264.31,184.87,276,171.2,276H147.39z"/>
<g>
	<path d="M368.36,196h-33.19c-3.63,0-6.8,3.12-7.68,7.58l-15.79,79.78c-0.03,0.15-0.05,0.28-0.09,0.42l-7.87,39.8
		c-1.07,5.35,1.52,10.78,5.76,12.12c0.64,0.21,1.29,0.3,1.93,0.3c3.55,0,6.77-3.03,7.67-7.58l6.42-32.42h27.77
		c20.94,0,39.1-17.92,44.19-43.58l1.38-7.04c2.37-11.95,0.29-24.38-5.71-34.09C387.14,201.57,378.11,196,368.36,196z M383.5,240.53
		l-1.38,7.04C378.8,264.31,366.95,276,353.29,276h-23.81l11.88-60h27c4.84,0,9.33,2.76,12.31,7.59
		C383.65,228.41,384.68,234.58,383.5,240.53z"/>
	<path d="M298.68,208.21c-5-7.75-12.41-12.21-20.33-12.21h-25.1l2.62-18.21c0.79-5.43-2.06-10.63-6.37-11.62
		c-4.27-1-8.43,2.61-9.2,8.05l-15.83,110c-0.79,5.43,2.06,10.63,6.37,11.62c0.48,0.12,0.95,0.17,1.42,0.17
		c3.76,0,7.09-3.38,7.78-8.21L250.37,216h27.98c3.14,0,6.07,1.76,8.05,4.83c1.98,3.08,2.75,7.06,2.11,10.95l-8.59,52.19
		c-0.89,5.4,1.86,10.69,6.15,11.83c0.54,0.14,1.08,0.21,1.62,0.21c3.67,0,6.97-3.24,7.75-7.97l8.59-52.19
		C305.62,226.05,303.67,215.97,298.68,208.21z"/>
</g>
<linearGradient id="SVGID_1_" gradientUnits="userSpaceOnUse" x1="187.3608" y1="-378.3455" x2="202.639" y2="-371.2191" gradientTransform="matrix(21.3333 0 0 21.3333 -3903.9919 8251.3428)">
	<stop  offset="0" style="stop-color:#FFFFFF;stop-opacity:0.2"/>
	<stop  offset="1" style="stop-color:#FFFFFF;stop-opacity:0"/>
</linearGradient>
<path class="st1" d="M256,136c-106.54,0-190,52.71-190,120s83.46,120,190,120s190-52.71,190-120S362.54,136,256,136z"/>
</svg>
