<?xml version="1.0" encoding="utf-8"?>
<!-- Generator: Adobe Illustrator 24.1.1, SVG Export Plug-In . SVG Version: 6.00 Build 0)  -->
<svg version="1.1" id="Livello_1" xmlns="http://www.w3.org/2000/svg" xmlns:xlink="http://www.w3.org/1999/xlink" x="0px" y="0px"
	 viewBox="0 0 30 30" style="enable-background:new 0 0 30 30;" xml:space="preserve">
<style type="text/css">
	.st0{fill:#FFFFFF;}
</style>
<path class="st0" d="M2.27,14.8c0,1.85,1.88,3.57,4.85,4.55c-0.59,2.86-0.11,5.17,1.52,6.07c1.67,0.92,4.15,0.28,6.51-1.7
	c2.3,1.9,4.62,2.65,6.25,1.75c1.67-0.93,2.17-3.39,1.57-6.34c3.09-0.98,4.82-2.45,4.82-4.32c0-1.81-1.88-3.37-4.81-4.33
	c0.66-3.07,0.1-5.32-1.59-6.26c-1.63-0.9-3.98-0.12-6.31,1.83c-2.43-2.07-4.76-2.7-6.44-1.76c-1.63,0.9-2.09,3.25-1.5,6.17
	C4.25,11.41,2.27,13.01,2.27,14.8z"/>
<path d="M22.35,11.43c-0.24-0.08-0.48-0.15-0.73-0.22c0.04-0.16,0.08-0.32,0.11-0.48c0.55-2.57,0.19-4.64-1.04-5.33
	c-1.18-0.65-3.11,0.03-5.07,1.66c-0.19,0.16-0.38,0.33-0.56,0.5c-0.12-0.11-0.25-0.22-0.38-0.33c-2.05-1.74-4.1-2.48-5.33-1.79
	c-1.18,0.66-1.53,2.6-1.03,5.04c0.05,0.24,0.11,0.48,0.17,0.72c-0.29,0.08-0.57,0.16-0.84,0.25c-2.4,0.8-3.93,2.06-3.93,3.36
	c0,1.35,1.64,2.7,4.14,3.52c0.2,0.07,0.41,0.13,0.61,0.18c-0.07,0.26-0.13,0.52-0.18,0.78c-0.47,2.39-0.1,4.3,1.07,4.95
	c1.22,0.67,3.26-0.02,5.24-1.69c0.16-0.13,0.31-0.27,0.47-0.42c0.2,0.18,0.4,0.36,0.61,0.54c1.93,1.59,3.83,2.23,5,1.58
	c1.21-0.68,1.61-2.72,1.1-5.2c-0.04-0.19-0.08-0.38-0.14-0.58c0.14-0.04,0.28-0.08,0.42-0.13c2.6-0.83,4.29-2.16,4.29-3.53
	C26.38,13.5,24.79,12.24,22.35,11.43L22.35,11.43z"/>
<path class="st0" d="M21.78,17.46c-0.12,0.04-0.25,0.08-0.38,0.11c-0.29-0.87-0.67-1.8-1.15-2.75c0.45-0.93,0.82-1.85,1.1-2.71
	c0.23,0.06,0.46,0.13,0.67,0.2c2.1,0.69,3.37,1.72,3.37,2.51C25.41,15.65,24.03,16.74,21.78,17.46L21.78,17.46z M20.85,19.23
	c0.23,1.1,0.26,2.09,0.11,2.87c-0.13,0.7-0.41,1.16-0.74,1.35c-0.71,0.4-2.24-0.12-3.89-1.48c-0.19-0.16-0.38-0.32-0.57-0.5
	c0.64-0.67,1.28-1.45,1.9-2.31c1.1-0.09,2.13-0.25,3.07-0.45C20.78,18.88,20.82,19.06,20.85,19.23L20.85,19.23z M11.45,23.38
	c-0.7,0.24-1.25,0.24-1.59,0.06c-0.71-0.4-1.01-1.92-0.61-3.97c0.05-0.24,0.1-0.48,0.17-0.72c0.93,0.2,1.95,0.34,3.05,0.42
	c0.63,0.85,1.28,1.62,1.94,2.31c-0.14,0.13-0.28,0.26-0.43,0.38C13.1,22.59,12.22,23.11,11.45,23.38L11.45,23.38z M8.18,17.45
	c-1.1-0.36-2.02-0.83-2.64-1.35c-0.56-0.46-0.85-0.92-0.85-1.29c0-0.79,1.23-1.8,3.28-2.49c0.26-0.09,0.52-0.16,0.78-0.24
	c0.28,0.88,0.66,1.81,1.1,2.75c-0.45,0.95-0.83,1.89-1.12,2.78C8.55,17.57,8.36,17.51,8.18,17.45z M9.28,10.3
	C8.85,8.21,9.13,6.63,9.84,6.24c0.76-0.42,2.43,0.18,4.2,1.68c0.11,0.1,0.23,0.2,0.34,0.3c-0.66,0.68-1.31,1.45-1.93,2.29
	c-1.07,0.09-2.08,0.25-3.02,0.45C9.37,10.74,9.32,10.52,9.28,10.3L9.28,10.3z M19.05,12.61c-0.22-0.37-0.45-0.73-0.69-1.09
	c0.72,0.09,1.42,0.2,2.07,0.35c-0.2,0.6-0.44,1.23-0.72,1.87C19.49,13.36,19.27,12.99,19.05,12.61L19.05,12.61z M15.06,8.89
	c0.45,0.46,0.89,0.98,1.33,1.54c-0.89-0.04-1.79-0.04-2.68,0C14.16,9.87,14.61,9.36,15.06,8.89L15.06,8.89z M11.05,12.62
	c-0.22,0.37-0.44,0.74-0.64,1.12c-0.28-0.64-0.52-1.27-0.72-1.88c0.65-0.14,1.34-0.25,2.05-0.34
	C11.51,11.88,11.27,12.25,11.05,12.62z M11.77,18.17c-0.74-0.08-1.44-0.19-2.09-0.32c0.2-0.62,0.45-1.26,0.73-1.92
	c0.2,0.38,0.42,0.75,0.64,1.12C11.28,17.43,11.52,17.8,11.77,18.17z M15.09,20.8c-0.46-0.48-0.92-1-1.36-1.57
	c0.43,0.02,0.88,0.02,1.33,0.02c0.46,0,0.92-0.01,1.37-0.03C15.98,19.81,15.53,20.34,15.09,20.8z M19.71,15.89
	c0.3,0.66,0.56,1.3,0.76,1.91c-0.66,0.14-1.37,0.26-2.11,0.35c0.24-0.36,0.47-0.73,0.7-1.11C19.28,16.67,19.5,16.28,19.71,15.89
	L19.71,15.89z M18.21,16.58c-0.34,0.57-0.71,1.13-1.09,1.68c-0.67,0.05-1.37,0.07-2.07,0.07c-0.7,0-1.39-0.02-2.05-0.06
	c-0.39-0.55-0.76-1.11-1.11-1.69c-0.35-0.57-0.67-1.16-0.97-1.75c0.3-0.6,0.62-1.18,0.96-1.75v0c0.34-0.57,0.71-1.13,1.1-1.68
	c0.67-0.05,1.36-0.07,2.06-0.07c0.7,0,1.39,0.03,2.07,0.08c0.38,0.55,0.75,1.1,1.09,1.67c0.35,0.57,0.67,1.15,0.98,1.74
	C18.88,15.42,18.56,16.01,18.21,16.58L18.21,16.58z M20.21,6.21c0.76,0.42,1.05,2.11,0.58,4.33c-0.03,0.14-0.07,0.29-0.1,0.43
	c-0.94-0.21-1.96-0.36-3.03-0.46c-0.62-0.85-1.27-1.62-1.91-2.29c0.17-0.16,0.34-0.31,0.52-0.46C17.93,6.37,19.49,5.82,20.21,6.21
	L20.21,6.21z"/>
<path d="M15.05,12.87c1.12,0,2.02,0.87,2.02,1.94c0,1.07-0.91,1.94-2.02,1.94c-1.12,0-2.02-0.87-2.02-1.94
	C13.03,13.74,13.93,12.87,15.05,12.87"/>
</svg>
