<?xml version="1.0" encoding="utf-8"?>
<!-- Generator: Adobe Illustrator 24.1.1, SVG Export Plug-In . SVG Version: 6.00 Build 0)  -->
<svg version="1.1" id="Livello_1" xmlns="http://www.w3.org/2000/svg" xmlns:xlink="http://www.w3.org/1999/xlink" x="0px" y="0px"
	 viewBox="0 0 30 30" style="enable-background:new 0 0 30 30;" xml:space="preserve">
<style type="text/css">
	.st0{fill:#FF5C33;}
	.st1{fill-rule:evenodd;clip-rule:evenodd;fill:#FF5C33;}
</style>
<g>
	<path class="st0" d="M14.61,4.52c5.88,0,10.67,4.79,10.67,10.67c0,5.88-4.79,10.67-10.67,10.67c-5.88,0-10.67-4.79-10.67-10.67
		C3.94,9.31,8.72,4.52,14.61,4.52 M14.61,2.83c-6.83,0-12.36,5.53-12.36,12.36s5.53,12.36,12.36,12.36s12.36-5.53,12.36-12.36
		S21.43,2.83,14.61,2.83L14.61,2.83z"/>
	<path class="st1" d="M12.35,18.85c-1.51-0.05-2.45-1.14-2.7-2.02c0.42,0.08,0.83,0.06,1.25-0.04c0.01,0,0.02-0.01,0.04-0.02
		c-0.82-0.19-1.45-0.63-1.89-1.33c-0.29-0.47-0.43-0.98-0.43-1.55c0.41,0.22,0.84,0.34,1.29,0.35c-0.62-0.44-1.03-1.02-1.2-1.76
		c-0.17-0.74-0.06-1.44,0.31-2.11c1.57,1.85,3.57,2.87,5.99,3.04c-0.02-0.11-0.03-0.22-0.05-0.32c-0.08-0.68,0.06-1.32,0.43-1.9
		c0.46-0.73,1.12-1.18,1.97-1.31c0.98-0.16,1.83,0.12,2.54,0.81c0.05,0.05,0.09,0.06,0.15,0.05c0.6-0.13,1.16-0.34,1.69-0.65
		c0.01-0.01,0.03-0.01,0.04-0.02c0,0,0.01,0,0.02,0c-0.23,0.68-0.65,1.2-1.24,1.58c0.56-0.06,1.1-0.21,1.62-0.44
		c0,0,0.01,0.01,0.01,0.01c-0.11,0.15-0.22,0.29-0.33,0.44c-0.31,0.38-0.66,0.71-1.06,1c-0.03,0.02-0.05,0.05-0.05,0.09
		c0.02,0.43,0,0.86-0.05,1.29c-0.11,0.9-0.36,1.76-0.75,2.59c-0.4,0.85-0.92,1.62-1.57,2.29c-1.11,1.14-2.44,1.88-3.99,2.23
		c-0.53,0.12-1.07,0.18-1.62,0.19c-1.68,0.05-3.22-0.37-4.65-1.25c-0.02-0.01-0.04-0.02-0.07-0.04c1.01,0.11,1.98-0.02,2.91-0.4
		C11.46,19.46,11.92,19.19,12.35,18.85z"/>
</g>
</svg>
