<?xml version="1.0" encoding="utf-8"?>
<!-- Generator: Adobe Illustrator 24.1.1, SVG Export Plug-In . SVG Version: 6.00 Build 0)  -->
<svg version="1.1" id="Capa_1" xmlns="http://www.w3.org/2000/svg" xmlns:xlink="http://www.w3.org/1999/xlink" x="0px" y="0px"
	 viewBox="0 0 25.92 25.92" style="enable-background:new 0 0 25.92 25.92;" xml:space="preserve">
<style type="text/css">
	.st0{fill:#030104;}
</style>
<g>
	<path class="st0" d="M4.81,12.96c0,3.23,1.87,6.01,4.59,7.33L5.52,9.65C5.07,10.66,4.81,11.78,4.81,12.96z M18.46,12.55
		c0-1.01-0.36-1.7-0.67-2.25c-0.41-0.67-0.8-1.24-0.8-1.91c0-0.75,0.57-1.45,1.37-1.45c0.04,0,0.07,0,0.11,0.01
		c-1.45-1.33-3.38-2.14-5.5-2.14c-2.85,0-5.35,1.46-6.81,3.67C6.34,8.49,6.53,8.5,6.68,8.5c0.85,0,2.17-0.1,2.17-0.1
		C9.29,8.37,9.34,9.01,8.9,9.06c0,0-0.44,0.05-0.93,0.08l2.97,8.83l1.78-5.35l-1.27-3.48c-0.44-0.03-0.86-0.08-0.86-0.08
		c-0.44-0.03-0.39-0.7,0.05-0.67c0,0,1.35,0.1,2.15,0.1c0.85,0,2.17-0.1,2.17-0.1c0.44-0.03,0.49,0.62,0.05,0.67
		c0,0-0.44,0.05-0.93,0.08l2.94,8.76l0.81-2.72C18.26,14.13,18.46,13.25,18.46,12.55z M13.11,13.68l-2.45,7.1
		c0.73,0.21,1.5,0.33,2.3,0.33c0.95,0,1.86-0.16,2.71-0.46c-0.02-0.04-0.04-0.07-0.06-0.11L13.11,13.68z M20.11,9.05
		c0.04,0.26,0.05,0.54,0.05,0.84c0,0.83-0.16,1.76-0.62,2.92l-2.49,7.2c2.42-1.41,4.05-4.04,4.05-7.04
		C21.11,11.54,20.75,10.21,20.11,9.05z"/>
	<g>
		<path class="st0" d="M3.46,12.96c0,5.24,4.26,9.5,9.5,9.5c5.24,0,9.5-4.26,9.5-9.5s-4.26-9.5-9.5-9.5S3.46,7.72,3.46,12.96z
			 M3.9,12.96c0-5,4.07-9.06,9.06-9.06s9.07,4.07,9.07,9.06s-4.07,9.06-9.06,9.06S3.9,17.96,3.9,12.96z"/>
	</g>
</g>
</svg>
